# xmcd CD Database Entry
#
# Track frame offsets:
# 150
# 3742
# 21202
# 44290
# 68635
# 88710
# 104662
# 132787
# 151020
# 168457
# 182245
# 192997
# 202837
#
# Disc length: 3691 seconds
#
# Revision: 3
# Processed by: cddbd v1.4PL0 Copyright (c) Steve Scherf et al.
# Submitted via: tcd 2.0b
#
DISCID=a80e690d
DTITLE=Limp Bizkit - Three Dollar Bill, Yall$
DYEAR=1997
DGENRE=Hard Rock
TTITLE0=Intro
TTITLE1=Pollution
TTITLE2=Counterfeit
TTITLE3=Stuck
TTITLE4=Nobody Love's Me
TTITLE5=Sour
TTITLE6=Stalemate
TTITLE7=Clunk
TTITLE8=Faith
TTITLE9=StinkFinger
TTITLE10=Indigo Flow
TTITLE11=Leech
TTITLE12=Everything
EXTD=\nYEAR: 1997  ID3G:  79\n
EXTT0=
EXTT1=
EXTT2=
EXTT3=
EXTT4=
EXTT5=
EXTT6=
EXTT7=
EXTT8=
EXTT9=
EXTT10=
EXTT11=
EXTT12=
PLAYORDER=
